<svg width="3704" height="1036" xmlns="http://www.w3.org/2000/svg" xmlns:xlink="http://www.w3.org/1999/xlink" xml:space="preserve" overflow="hidden"><defs><linearGradient x1="2809" y1="547.5" x2="2809" y2="1573.5" gradientUnits="userSpaceOnUse" spreadMethod="reflect" id="fill0"><stop offset="0" stop-color="#A6A6A6" stop-opacity="1"/><stop offset="0.32" stop-color="#FFFFFF" stop-opacity="1"/><stop offset="0.74" stop-color="#FFFFFF" stop-opacity="1"/><stop offset="1" stop-color="#A6A6A6" stop-opacity="1"/></linearGradient></defs><g transform="translate(-343 -540)"><g><path d="M2297.5 718.003C2297.5 623.837 2373.84 547.5 2468 547.5L3150 547.5C3244.16 547.5 3320.5 623.837 3320.5 718.003L3320.5 1403C3320.5 1497.16 3244.16 1573.5 3150 1573.5L2468 1573.5C2373.84 1573.5 2297.5 1497.16 2297.5 1403Z" stroke="#D9D9D9" stroke-width="4.58333" stroke-linecap="butt" stroke-linejoin="miter" stroke-miterlimit="8" stroke-opacity="1" fill="url(#fill0)" fill-rule="evenodd"/><path d="M2878 1094 3912.88 1094" stroke="#4472C4" stroke-width="13.75" stroke-linecap="butt" stroke-linejoin="miter" stroke-miterlimit="8" stroke-opacity="1" fill="none" fill-rule="evenodd"/><rect x="2878.5" y="1016.5" width="148" height="155" stroke="#2F528F" stroke-width="4.58333" stroke-linecap="butt" stroke-linejoin="miter" stroke-miterlimit="8" stroke-opacity="1" fill="#2E75B6" fill-opacity="1"/><path d="M3109.5 1094C3109.5 1051.2 3142.41 1016.5 3183 1016.5 3223.59 1016.5 3256.5 1051.2 3256.5 1094 3256.5 1136.8 3223.59 1171.5 3183 1171.5 3142.41 1171.5 3109.5 1136.8 3109.5 1094Z" stroke="#2F528F" stroke-width="4.58333" stroke-linecap="butt" stroke-linejoin="miter" stroke-miterlimit="8" stroke-opacity="1" fill="#9DC3E6" fill-rule="evenodd" fill-opacity="1"/><path d="M3339.5 1171.5 3413.5 1016.5 3487.5 1171.5Z" stroke="#9DC3E6" stroke-width="4.58333" stroke-linecap="square" stroke-linejoin="miter" stroke-miterlimit="8" stroke-dasharray="13.75 4.58333" stroke-opacity="1" fill="#FFFFFF" fill-rule="evenodd" fill-opacity="1"/><path d="M3801.5 1075.7 3875.5 1016.5 3949.5 1075.7 3921.23 1171.5 3829.77 1171.5Z" stroke="#2F528F" stroke-width="4.58333" stroke-linecap="butt" stroke-linejoin="miter" stroke-miterlimit="8" stroke-opacity="1" fill="#2E75B6" fill-rule="evenodd" fill-opacity="1"/><path d="M3559.5 1094 3633.5 1016.5 3707.5 1094 3633.5 1171.5Z" stroke="#2F528F" stroke-width="4.58333" stroke-linecap="butt" stroke-linejoin="miter" stroke-miterlimit="8" stroke-opacity="1" fill="#9DC3E6" fill-rule="evenodd" fill-opacity="1"/><text fill="#4472C4" fill-opacity="1" font-family="Calibri,Calibri_MSFontService,sans-serif" font-style="normal" font-variant="normal" font-weight="700" font-stretch="normal" font-size="64" text-anchor="start" direction="ltr" writing-mode="lr-tb" unicode-bidi="normal" text-decoration="none" transform="matrix(1 0 0 1 2715.22 1326)">P</text><text fill="#4472C4" fill-opacity="1" font-family="Calibri,Calibri_MSFontService,sans-serif" font-style="normal" font-variant="normal" font-weight="700" font-stretch="normal" font-size="64" text-anchor="start" direction="ltr" writing-mode="lr-tb" unicode-bidi="normal" text-decoration="none" transform="matrix(1 0 0 1 2715.22 1403)">P</text><text fill="#4472C4" fill-opacity="1" font-family="Calibri,Calibri_MSFontService,sans-serif" font-style="normal" font-variant="normal" font-weight="700" font-stretch="normal" font-size="64" text-anchor="start" direction="ltr" writing-mode="lr-tb" unicode-bidi="normal" text-decoration="none" transform="matrix(1 0 0 1 2677.11 1480)">Und</text><path d="M2732 1075 2732 1249.25" stroke="#4472C4" stroke-width="13.75" stroke-linecap="butt" stroke-linejoin="miter" stroke-miterlimit="8" stroke-opacity="1" fill="none" fill-rule="evenodd"/><path d="M1662 1094 2696.88 1094" stroke="#2E75B6" stroke-width="13.75" stroke-linecap="butt" stroke-linejoin="miter" stroke-miterlimit="8" stroke-opacity="1" fill="none" fill-rule="evenodd"/><rect x="1662.5" y="1016.5" width="148" height="155" stroke="#2F528F" stroke-width="4.58333" stroke-linecap="butt" stroke-linejoin="miter" stroke-miterlimit="8" stroke-opacity="1" fill="#2E75B6" fill-opacity="1"/><path d="M1893.5 1094C1893.5 1051.2 1926.41 1016.5 1967 1016.5 2007.59 1016.5 2040.5 1051.2 2040.5 1094 2040.5 1136.8 2007.59 1171.5 1967 1171.5 1926.41 1171.5 1893.5 1136.8 1893.5 1094Z" stroke="#2F528F" stroke-width="4.58333" stroke-linecap="butt" stroke-linejoin="miter" stroke-miterlimit="8" stroke-opacity="1" fill="#9DC3E6" fill-rule="evenodd" fill-opacity="1"/><path d="M2123.5 1171.5 2197.5 1016.5 2271.5 1171.5Z" stroke="#9DC3E6" stroke-width="4.58333" stroke-linecap="square" stroke-linejoin="miter" stroke-miterlimit="8" stroke-dasharray="13.75 4.58333" stroke-opacity="1" fill="#FFFFFF" fill-rule="evenodd" fill-opacity="1"/><path d="M2585.5 1075.7 2659 1016.5 2732.5 1075.7 2704.43 1171.5 2613.57 1171.5Z" stroke="#2F528F" stroke-width="4.58333" stroke-linecap="butt" stroke-linejoin="miter" stroke-miterlimit="8" stroke-opacity="1" fill="#2E75B6" fill-rule="evenodd" fill-opacity="1"/><path d="M2343.5 1094 2417.5 1016.5 2491.5 1094 2417.5 1171.5Z" stroke="#2F528F" stroke-width="4.58333" stroke-linecap="butt" stroke-linejoin="miter" stroke-miterlimit="8" stroke-opacity="1" fill="#9DC3E6" fill-rule="evenodd" fill-opacity="1"/><path d="M74.6119-3.43568 82.3416-3.1842 89.9641-2.43468 97.3303-1.21434 104.404 0.453729 111.149 2.54712 117.528 5.04421 123.506 7.92437 129.046 11.1681 134.109 14.7573 138.953 18.9314 142.691 25.3054 136.76 28.7829 133.311 22.9016 134.033 23.767 129.744 20.0718 130 20.2719 125.192 16.8632 125.443 17.0253 120.152 13.9272 120.397 14.0577 114.662 11.2945 114.901 11.3987 108.758 8.99438 108.992 9.07636 102.48 7.05509 102.71 7.11782 95.8652 5.50372 96.0923 5.54927 88.9526 4.36647 89.1781 4.39619 81.7809 3.66882 82.0055 3.6835 74.3883 3.43568ZM150.444 17.2881 149 48.0001 125.297 28.4179Z" fill="#FF0000" fill-rule="nonzero" fill-opacity="1" transform="matrix(-1 0 0 1 2911.5 1036.5)"/><text fill="#000000" fill-opacity="1" font-family="Arial,Arial_MSFontService,sans-serif" font-style="normal" font-variant="normal" font-weight="400" font-stretch="normal" font-size="64" text-anchor="start" direction="ltr" writing-mode="lr-tb" unicode-bidi="normal" text-decoration="none" transform="matrix(1 0 0 1 2331.94 861)">donor</text><text fill="#000000" fill-opacity="1" font-family="Arial,Arial_MSFontService,sans-serif" font-style="normal" font-variant="normal" font-weight="400" font-stretch="normal" font-size="64" text-anchor="start" direction="ltr" writing-mode="lr-tb" unicode-bidi="normal" text-decoration="none" transform="matrix(1 0 0 1 2512.98 861)">subsites</text><text fill="#000000" fill-opacity="1" font-family="Arial,Arial_MSFontService,sans-serif" font-style="normal" font-variant="normal" font-weight="400" font-stretch="normal" font-size="64" text-anchor="start" direction="ltr" writing-mode="lr-tb" unicode-bidi="normal" text-decoration="none" transform="matrix(1 0 0 1 2824.56 862)">acceptor</text><text fill="#000000" fill-opacity="1" font-family="Arial,Arial_MSFontService,sans-serif" font-style="normal" font-variant="normal" font-weight="400" font-stretch="normal" font-size="64" text-anchor="start" direction="ltr" writing-mode="lr-tb" unicode-bidi="normal" text-decoration="none" transform="matrix(1 0 0 1 3087.53 862)">subsites</text><text fill="#000000" fill-opacity="1" font-family="Arial,Arial_MSFontService,sans-serif" font-style="normal" font-variant="normal" font-weight="400" font-stretch="normal" font-size="73" text-anchor="start" direction="ltr" writing-mode="lr-tb" unicode-bidi="normal" text-decoration="none" transform="matrix(1 0 0 1 1024.85 870)">growing</text><text fill="#000000" fill-opacity="1" font-family="Arial,Arial_MSFontService,sans-serif" font-style="normal" font-variant="normal" font-weight="400" font-stretch="normal" font-size="73" text-anchor="start" direction="ltr" writing-mode="lr-tb" unicode-bidi="normal" text-decoration="none" transform="matrix(1 0 0 1 1301.56 870)">polysaccharide </text><text fill="#000000" fill-opacity="1" font-family="Arial,Arial_MSFontService,sans-serif" font-style="normal" font-variant="normal" font-weight="400" font-stretch="normal" font-size="73" text-anchor="start" direction="ltr" writing-mode="lr-tb" unicode-bidi="normal" text-decoration="none" transform="matrix(1 0 0 1 1810.31 870)">chain</text><text fill="#4472C4" fill-opacity="1" font-family="Calibri,Calibri_MSFontService,sans-serif" font-style="normal" font-variant="normal" font-weight="700" font-stretch="normal" font-size="64" text-anchor="start" direction="ltr" writing-mode="lr-tb" unicode-bidi="normal" text-decoration="none" transform="matrix(1 0 0 1 3931.78 1326)">P</text><text fill="#4472C4" fill-opacity="1" font-family="Calibri,Calibri_MSFontService,sans-serif" font-style="normal" font-variant="normal" font-weight="700" font-stretch="normal" font-size="64" text-anchor="start" direction="ltr" writing-mode="lr-tb" unicode-bidi="normal" text-decoration="none" transform="matrix(1 0 0 1 3931.78 1403)">P</text><text fill="#4472C4" fill-opacity="1" font-family="Calibri,Calibri_MSFontService,sans-serif" font-style="normal" font-variant="normal" font-weight="700" font-stretch="normal" font-size="64" text-anchor="start" direction="ltr" writing-mode="lr-tb" unicode-bidi="normal" text-decoration="none" transform="matrix(1 0 0 1 3893.67 1480)">Und</text><path d="M3949 1075 3949 1249.25" stroke="#4472C4" stroke-width="13.75" stroke-linecap="butt" stroke-linejoin="miter" stroke-miterlimit="8" stroke-opacity="1" fill="none" fill-rule="evenodd"/><path d="M1580 963C1598.78 963 1614 964.268 1614 965.833L1614 1238.17C1614 1239.73 1598.78 1241 1580 1241" stroke="#4472C4" stroke-width="10.3125" stroke-linecap="butt" stroke-linejoin="miter" stroke-miterlimit="8" stroke-opacity="1" fill="none" fill-rule="evenodd"/><text fill="#4472C4" fill-opacity="1" font-family="Calibri,Calibri_MSFontService,sans-serif" font-style="italic" font-variant="normal" font-weight="400" font-stretch="normal" font-size="83" text-anchor="start" direction="ltr" writing-mode="lr-tb" unicode-bidi="normal" text-decoration="none" transform="matrix(1 0 0 1 1631.97 1285)">n</text><text fill="#000000" fill-opacity="1" font-family="Arial,Arial_MSFontService,sans-serif" font-style="normal" font-variant="normal" font-weight="400" font-stretch="normal" font-size="92" text-anchor="start" direction="ltr" writing-mode="lr-tb" unicode-bidi="normal" text-decoration="none" transform="matrix(1 0 0 1 2605.16 714)">active site</text><path d="M2768.13 1193.01 2773.62 1198.47 2778.69 1204.22 2783.26 1210.14 2787.3 1216.2 2790.81 1222.34 2793.78 1228.53 2796.19 1234.73 2798.03 1240.89 2799.28 1246.98 2799.93 1252.97 2799.96 1258.8 2799.34 1264.43 2798.06 1269.82 2796.08 1274.91 2793.14 1280.06 2787.05 1284.42 2783.04 1278.83 2788.53 1274.9 2787.54 1276 2789.98 1271.72 2789.76 1272.18 2791.56 1267.55 2791.42 1267.99 2792.61 1263.04 2792.53 1263.47 2793.1 1258.24 2793.08 1258.63 2793.06 1253.18 2793.08 1253.53 2792.46 1247.89 2792.51 1248.21 2791.32 1242.42 2791.4 1242.71 2789.64 1236.83 2789.73 1237.09 2787.42 1231.14 2787.52 1231.38 2784.66 1225.42 2784.78 1225.64 2781.39 1219.71 2781.52 1219.92 2777.6 1214.06 2777.74 1214.25 2773.32 1208.51 2773.46 1208.68 2768.54 1203.1 2768.69 1203.26 2763.28 1197.88ZM2795.5 1291.67 2764.76 1292.29 2782.7 1267.32Z" fill="#FF0000" fill-rule="nonzero" fill-opacity="1"/><text fill="#000000" fill-opacity="1" font-family="Calibri,Calibri_MSFontService,sans-serif" font-style="normal" font-variant="normal" font-weight="400" font-stretch="normal" font-size="64" text-anchor="start" direction="ltr" writing-mode="lr-tb" unicode-bidi="normal" text-decoration="none" transform="matrix(1 0 0 1 2385.28 980)">-</text><text fill="#000000" fill-opacity="1" font-family="Calibri,Calibri_MSFontService,sans-serif" font-style="normal" font-variant="normal" font-weight="400" font-stretch="normal" font-size="64" text-anchor="start" direction="ltr" writing-mode="lr-tb" unicode-bidi="normal" text-decoration="none" transform="matrix(1 0 0 1 2404.76 980)">2</text><text fill="#000000" fill-opacity="1" font-family="Calibri,Calibri_MSFontService,sans-serif" font-style="normal" font-variant="normal" font-weight="400" font-stretch="normal" font-size="64" text-anchor="start" direction="ltr" writing-mode="lr-tb" unicode-bidi="normal" text-decoration="none" transform="matrix(1 0 0 1 2632.43 975)">-</text><text fill="#000000" fill-opacity="1" font-family="Calibri,Calibri_MSFontService,sans-serif" font-style="normal" font-variant="normal" font-weight="400" font-stretch="normal" font-size="64" text-anchor="start" direction="ltr" writing-mode="lr-tb" unicode-bidi="normal" text-decoration="none" transform="matrix(1 0 0 1 2651.91 975)">1</text><text fill="#000000" fill-opacity="1" font-family="Calibri,Calibri_MSFontService,sans-serif" font-style="normal" font-variant="normal" font-weight="400" font-stretch="normal" font-size="64" text-anchor="start" direction="ltr" writing-mode="lr-tb" unicode-bidi="normal" text-decoration="none" transform="matrix(1 0 0 1 2919.41 973)">+1</text><text fill="#000000" fill-opacity="1" font-family="Calibri,Calibri_MSFontService,sans-serif" font-style="normal" font-variant="normal" font-weight="400" font-stretch="normal" font-size="64" text-anchor="start" direction="ltr" writing-mode="lr-tb" unicode-bidi="normal" text-decoration="none" transform="matrix(1 0 0 1 3150.81 973)">+2</text><path d="M2314 939C2314 922.984 2315.08 910 2316.42 910L2514.58 910C2515.92 910 2517 922.984 2517 939" stroke="#4472C4" stroke-width="10.3125" stroke-linecap="butt" stroke-linejoin="miter" stroke-miterlimit="8" stroke-opacity="1" fill="none" fill-rule="evenodd"/><path d="M2556 939C2556 922.984 2557.08 910 2558.42 910L2756.58 910C2757.92 910 2759 922.984 2759 939" stroke="#4472C4" stroke-width="10.3125" stroke-linecap="butt" stroke-linejoin="miter" stroke-miterlimit="8" stroke-opacity="1" fill="none" fill-rule="evenodd"/><path d="M2842 939C2842 922.984 2843.08 910 2844.42 910L3042.58 910C3043.92 910 3045 922.984 3045 939" stroke="#4472C4" stroke-width="10.3125" stroke-linecap="butt" stroke-linejoin="miter" stroke-miterlimit="8" stroke-opacity="1" fill="none" fill-rule="evenodd"/><path d="M3084 939C3084 922.984 3085.08 910 3086.42 910L3284.58 910C3285.92 910 3287 922.984 3287 939" stroke="#4472C4" stroke-width="10.3125" stroke-linecap="butt" stroke-linejoin="miter" stroke-miterlimit="8" stroke-opacity="1" fill="none" fill-rule="evenodd"/><path d="M347 1094 1684.9 1094" stroke="#4472C4" stroke-width="13.75" stroke-linecap="butt" stroke-linejoin="miter" stroke-miterlimit="8" stroke-opacity="1" fill="none" fill-rule="evenodd"/><rect x="487.5" y="1016.5" width="148" height="156" stroke="#2F528F" stroke-width="4.58333" stroke-linecap="butt" stroke-linejoin="miter" stroke-miterlimit="8" stroke-opacity="1" fill="#2E75B6" fill-opacity="1"/><path d="M718.5 1094.5C718.5 1051.42 751.631 1016.5 792.5 1016.5 833.369 1016.5 866.5 1051.42 866.5 1094.5 866.5 1137.58 833.369 1172.5 792.5 1172.5 751.631 1172.5 718.5 1137.58 718.5 1094.5Z" stroke="#2F528F" stroke-width="4.58333" stroke-linecap="butt" stroke-linejoin="miter" stroke-miterlimit="8" stroke-opacity="1" fill="#9DC3E6" fill-rule="evenodd" fill-opacity="1"/><path d="M949.5 1172.5 1023 1016.5 1096.5 1172.5Z" stroke="#9DC3E6" stroke-width="4.58333" stroke-linecap="square" stroke-linejoin="miter" stroke-miterlimit="8" stroke-dasharray="13.75 4.58333" stroke-opacity="1" fill="#FFFFFF" fill-rule="evenodd" fill-opacity="1"/><path d="M1410.5 1076.09 1484.5 1016.5 1558.5 1076.09 1530.23 1172.5 1438.77 1172.5Z" stroke="#2F528F" stroke-width="4.58333" stroke-linecap="butt" stroke-linejoin="miter" stroke-miterlimit="8" stroke-opacity="1" fill="#2E75B6" fill-rule="evenodd" fill-opacity="1"/><path d="M1168.5 1094.5 1242.5 1016.5 1316.5 1094.5 1242.5 1172.5Z" stroke="#2F528F" stroke-width="4.58333" stroke-linecap="butt" stroke-linejoin="miter" stroke-miterlimit="8" stroke-opacity="1" fill="#9DC3E6" fill-rule="evenodd" fill-opacity="1"/><path d="M34 278C15.2223 278 2.21207e-14 276.732-1.32724e-14 275.167L0 2.8332C-2.65449e-14 1.26847 15.2223-1.65905e-15 34-3.87112e-15" stroke="#4472C4" stroke-width="10.3125" stroke-linecap="butt" stroke-linejoin="miter" stroke-miterlimit="8" stroke-opacity="1" fill="none" fill-rule="evenodd" transform="matrix(1 -1.22465e-16 -1.22465e-16 -1 437 1241)"/><path d="M2096.5 1325.51 2175.19 1325.51 2199.5 1249.5 2223.81 1325.51 2302.5 1325.51 2238.84 1372.49 2263.16 1448.5 2199.5 1401.52 2135.84 1448.5 2160.16 1372.49Z" stroke="#9DC3E6" stroke-width="4.58333" stroke-linecap="square" stroke-linejoin="miter" stroke-miterlimit="8" stroke-dasharray="13.75 4.58333" stroke-opacity="1" fill="none" fill-rule="evenodd"/><path d="M3310.5 1314.51 3389.19 1314.51 3413.5 1238.5 3437.81 1314.51 3516.5 1314.51 3452.84 1361.49 3477.16 1437.5 3413.5 1390.52 3349.84 1437.5 3374.16 1361.49Z" stroke="#9DC3E6" stroke-width="4.58333" stroke-linecap="square" stroke-linejoin="miter" stroke-miterlimit="8" stroke-dasharray="13.75 4.58333" stroke-opacity="1" fill="none" fill-rule="evenodd"/><path d="M922.5 1314.51 1001.19 1314.51 1025.5 1238.5 1049.81 1314.51 1128.5 1314.51 1064.84 1361.49 1089.16 1437.5 1025.5 1390.52 961.843 1437.5 986.158 1361.49Z" stroke="#9DC3E6" stroke-width="4.58333" stroke-linecap="square" stroke-linejoin="miter" stroke-miterlimit="8" stroke-dasharray="13.75 4.58333" stroke-opacity="1" fill="none" fill-rule="evenodd"/><path d="M1025.5 1175.5 1025.5 1249.63" stroke="#2E75B6" stroke-width="4.58333" stroke-linecap="square" stroke-linejoin="miter" stroke-miterlimit="8" stroke-dasharray="13.75 4.58333" stroke-opacity="1" fill="none" fill-rule="evenodd"/><path d="M3414.5 1171.5 3414.5 1245.63" stroke="#2E75B6" stroke-width="4.58333" stroke-linecap="square" stroke-linejoin="miter" stroke-miterlimit="8" stroke-dasharray="13.75 4.58333" stroke-opacity="1" fill="none" fill-rule="evenodd"/><path d="M2197.5 1171.5 2197.5 1245.63" stroke="#2E75B6" stroke-width="4.58333" stroke-linecap="square" stroke-linejoin="miter" stroke-miterlimit="8" stroke-dasharray="13.75 4.58333" stroke-opacity="1" fill="none" fill-rule="evenodd"/></g></g></svg>